<svg xmlns="http://www.w3.org/2000/svg" version="1.1" xmlns:xlink="http://www.w3.org/1999/xlink" xmlns:svgjs="http://svgjs.dev/svgjs" width="2000" height="303" viewBox="0 0 2000 303"><g transform="matrix(1,0,0,1,-1.2121212121212466,-0.06173667242853753)"><svg viewBox="0 0 396 60" data-background-color="#ffffff" preserveAspectRatio="xMidYMid meet" height="303" width="2000" xmlns="http://www.w3.org/2000/svg" xmlns:xlink="http://www.w3.org/1999/xlink"><g id="tight-bounds" transform="matrix(1,0,0,1,0.2400000000000091,0.01222508364921282)"><svg viewBox="0 0 395.52 59.97554983270156" height="59.97554983270156" width="395.52"><g><svg viewBox="0 0 611.7599999350547 92.76558040493117" height="59.97554983270156" width="395.52"><g transform="matrix(1,0,0,1,216.2399999350547,12.820713355529563)"><svg viewBox="0 0 395.52 67.12415369387205" height="67.12415369387205" width="395.52"><g id="textblocktransform"><svg viewBox="0 0 395.52 67.12415369387205" height="67.12415369387205" width="395.52" id="textblock"><g><svg viewBox="0 0 395.52 67.12415369387205" height="67.12415369387205" width="395.52"><g transform="matrix(1,0,0,1,0,0)"><svg width="395.52" viewBox="3.56 -38.57 271.3 46.04" height="67.12415369387205" data-palette-color="#000000"><path d="M37.45-16.82L37.45-16.82 37.45-16.36Q37.4-14.31 37.02-12.11 36.65-9.91 35.96-7.71 35.28-5.52 34.33-3.37 33.37-1.22 32.19 0.74 31.01 2.71 29.64 4.43 28.27 6.15 26.76 7.47L26.76 7.47 23.12 5.37Q23.97 3.93 24.67 2.23 25.37 0.54 25.93-1.32 26.49-3.17 26.89-5.13 27.29-7.08 27.56-9.01 27.83-10.94 27.97-12.81 28.1-14.67 28.1-16.36L28.1-16.36Q28.1-17.68 28.09-19.35 28.08-21.02 27.89-22.75 27.71-24.49 27.29-26.14 26.88-27.78 26.06-29.08 25.24-30.37 23.96-31.15 22.68-31.93 20.78-31.93L20.78-31.93Q19.09-31.93 17.88-31.36 16.67-30.79 15.83-29.82 14.99-28.86 14.49-27.59 13.99-26.32 13.71-24.91 13.43-23.51 13.34-22.08 13.26-20.65 13.26-19.38L13.26-19.38 13.26-12.57 23.78-12.57 23.78-8.54 13.26-8.54 13.26 0 3.56 0 3.56-17.87Q3.56-21.7 4.79-25 6.01-28.3 8.24-30.73 10.47-33.15 13.61-34.53 16.75-35.91 20.61-35.91L20.61-35.91Q23.22-35.91 25.5-35.17 27.78-34.42 29.66-33.12 31.54-31.81 33.02-30.02 34.5-28.22 35.49-26.1 36.47-23.97 36.99-21.61 37.5-19.24 37.45-16.82ZM41.53-12.06L41.53-12.06Q41.53-13.99 41.86-16.06 42.19-18.14 42.81-20.21 43.43-22.29 44.31-24.32 45.19-26.34 46.29-28.2L46.29-28.2 52.32-28.2Q51.71-26.37 51.23-24.38 50.75-22.39 50.42-20.4 50.1-18.41 49.91-16.5 49.73-14.6 49.73-12.96L49.73-12.96Q49.73-12.01 49.81-10.93 49.9-9.84 50.12-8.75 50.34-7.67 50.74-6.67 51.14-5.66 51.78-4.9 52.41-4.13 53.33-3.67 54.25-3.22 55.49-3.22L55.49-3.22Q56.71-3.22 57.68-3.77 58.64-4.32 59.37-5.21 60.1-6.1 60.62-7.25 61.13-8.4 61.46-9.61 61.79-10.82 61.95-11.98 62.11-13.13 62.11-14.06L62.11-14.06 62.11-28.2 70.36-28.2 70.36 0 67.19 0 63.4-6.57Q62.69-4.93 61.68-3.6 60.67-2.27 59.37-1.32 58.08-0.37 56.5 0.15 54.93 0.66 53.1 0.66L53.1 0.66Q50.17 0.66 48-0.29 45.82-1.25 44.38-2.93 42.94-4.61 42.23-6.95 41.53-9.28 41.53-12.06ZM87.86-24.93L87.86 0 79.58 0 79.58-24.93 74.46-24.93 74.46-28.2 79.58-28.2 79.58-38.57 87.86-38.57 87.86-28.2 96.41-28.2 96.41-24.93 87.86-24.93ZM128.78-14.16L128.78-14.16Q128.78-11.96 128.19-10.03 127.6-8.11 126.57-6.47 125.53-4.83 124.06-3.53 122.6-2.22 120.85-1.32 119.11-0.42 117.12 0.07 115.13 0.56 113.03 0.56L113.03 0.56Q110.93 0.56 108.95 0.07 106.97-0.42 105.23-1.32 103.48-2.22 102.02-3.53 100.55-4.83 99.52-6.47 98.48-8.11 97.89-10.05 97.31-11.99 97.31-14.16L97.31-14.16Q97.31-16.33 97.89-18.27 98.48-20.21 99.52-21.85 100.55-23.49 102.02-24.79 103.48-26.1 105.23-27 106.97-27.91 108.95-28.39 110.93-28.88 113.03-28.88L113.03-28.88Q115.13-28.88 117.12-28.39 119.11-27.91 120.85-27 122.6-26.1 124.06-24.79 125.53-23.49 126.57-21.85 127.6-20.21 128.19-18.27 128.78-16.33 128.78-14.16ZM120.38-14.16L120.38-14.16Q120.38-15.33 120.24-16.64 120.11-17.94 119.79-19.2 119.47-20.46 118.93-21.62 118.38-22.78 117.57-23.65 116.76-24.51 115.64-25.04 114.52-25.56 113.03-25.56L113.03-25.56Q111.61-25.56 110.51-25.02 109.42-24.49 108.6-23.6 107.78-22.71 107.23-21.53 106.68-20.36 106.34-19.1 106-17.85 105.85-16.56 105.71-15.28 105.71-14.16L105.71-14.16Q105.71-13.04 105.85-11.76 106-10.47 106.34-9.2 106.68-7.93 107.23-6.77 107.78-5.62 108.6-4.72 109.42-3.83 110.51-3.3 111.61-2.76 113.03-2.76L113.03-2.76Q114.49-2.76 115.62-3.28 116.74-3.81 117.56-4.69 118.38-5.57 118.91-6.71 119.45-7.86 119.78-9.13 120.11-10.4 120.24-11.69 120.38-12.99 120.38-14.16ZM163.32-10.74L163.32-10.74Q163.32-8.47 162.75-6.74 162.17-5 161.14-3.74 160.1-2.47 158.68-1.61 157.27-0.76 155.59-0.24 153.92 0.27 152.05 0.49 150.19 0.71 148.26 0.71L148.26 0.71Q145.72 0.71 143.57 0.33 141.42-0.05 139.53-0.87 137.64-1.68 135.89-2.98 134.15-4.27 132.41-6.13L132.41-6.13 137.39-11.18Q138.08-9.5 139.27-8.07 140.47-6.64 141.9-5.62 143.32-4.59 144.86-4 146.4-3.42 147.77-3.42L147.77-3.42Q149.38-3.42 150.8-3.65 152.21-3.88 153.26-4.42 154.31-4.96 154.91-5.85 155.51-6.74 155.51-8.08L155.51-8.08Q155.51-9.11 155.04-9.84 154.58-10.57 153.84-11.1 153.09-11.62 152.14-11.99 151.19-12.35 150.2-12.61 149.21-12.87 148.26-13.07 147.3-13.28 146.57-13.5L146.57-13.5Q145.13-13.92 143.57-14.39 142.01-14.87 140.49-15.48 138.98-16.09 137.62-16.88 136.27-17.68 135.24-18.76 134.22-19.85 133.61-21.28 133-22.71 133-24.56L133-24.56Q133-26.78 133.55-28.5 134.1-30.22 135.1-31.49 136.1-32.76 137.47-33.63 138.83-34.5 140.47-35.02 142.1-35.55 143.95-35.78 145.79-36.01 147.72-36.01L147.72-36.01Q150.36-36.01 152.52-35.52 154.68-35.03 156.51-34.13 158.34-33.23 159.87-31.97 161.39-30.71 162.73-29.17L162.73-29.17 157.75-24.12Q157.17-25.88 156.13-27.29 155.09-28.71 153.82-29.72 152.55-30.74 151.16-31.29 149.77-31.84 148.48-31.84L148.48-31.84Q146.79-31.84 145.38-31.6 143.96-31.37 142.95-30.85 141.93-30.32 141.37-29.43 140.81-28.54 140.81-27.22L140.81-27.22Q140.81-26.17 141.23-25.44 141.64-24.71 142.34-24.19 143.03-23.68 143.91-23.35 144.79-23.02 145.73-22.78 146.67-22.53 147.59-22.35 148.5-22.17 149.26-21.95L149.26-21.95Q150.72-21.53 152.33-21.07 153.95-20.61 155.51-19.98 157.07-19.36 158.49-18.55 159.9-17.75 160.98-16.64 162.05-15.53 162.69-14.07 163.32-12.62 163.32-10.74ZM197.35-16.16L197.35-16.16Q197.35-13.31 196.65-10.21 195.96-7.1 194.71-4.13 193.47-1.15 191.74 1.48 190 4.1 187.93 6.01L187.93 6.01 184.83 4.32Q185.49 3.1 186.07 1.59 186.66 0.07 187.13-1.62 187.61-3.32 187.99-5.13 188.37-6.93 188.62-8.7 188.88-10.47 189.01-12.15 189.15-13.82 189.15-15.26L189.15-15.26Q189.15-16.21 189.07-17.3 189-18.38 188.77-19.47 188.54-20.56 188.15-21.56 187.76-22.56 187.11-23.32 186.46-24.07 185.55-24.54 184.63-25 183.39-25L183.39-25Q182.17-25 181.21-24.45 180.26-23.9 179.53-23.01 178.8-22.12 178.27-20.97 177.75-19.82 177.42-18.62 177.09-17.41 176.94-16.24 176.79-15.06 176.79-14.14L176.79-14.14 176.79 0 168.52 0 168.52-38.57 176.77-38.57 176.77-24.05Q178.36-26.37 180.66-27.62 182.97-28.88 185.78-28.88L185.78-28.88Q188.71-28.88 190.88-27.93 193.05-26.98 194.49-25.28 195.93-23.58 196.64-21.25 197.35-18.92 197.35-16.16ZM232.58-14.16L232.58-14.16Q232.58-11.96 231.99-10.03 231.41-8.11 230.37-6.47 229.33-4.83 227.87-3.53 226.4-2.22 224.66-1.32 222.91-0.42 220.92 0.07 218.93 0.56 216.83 0.56L216.83 0.56Q214.73 0.56 212.75 0.07 210.78-0.42 209.03-1.32 207.28-2.22 205.82-3.53 204.36-4.83 203.32-6.47 202.28-8.11 201.69-10.05 201.11-11.99 201.11-14.16L201.11-14.16Q201.11-16.33 201.69-18.27 202.28-20.21 203.32-21.85 204.36-23.49 205.82-24.79 207.28-26.1 209.03-27 210.78-27.91 212.75-28.39 214.73-28.88 216.83-28.88L216.83-28.88Q218.93-28.88 220.92-28.39 222.91-27.91 224.66-27 226.4-26.1 227.87-24.79 229.33-23.49 230.37-21.85 231.41-20.21 231.99-18.27 232.58-16.33 232.58-14.16ZM224.18-14.16L224.18-14.16Q224.18-15.33 224.05-16.64 223.91-17.94 223.59-19.2 223.28-20.46 222.73-21.62 222.18-22.78 221.37-23.65 220.57-24.51 219.44-25.04 218.32-25.56 216.83-25.56L216.83-25.56Q215.41-25.56 214.32-25.02 213.22-24.49 212.4-23.6 211.58-22.71 211.03-21.53 210.48-20.36 210.14-19.1 209.8-17.85 209.65-16.56 209.51-15.28 209.51-14.16L209.51-14.16Q209.51-13.04 209.65-11.76 209.8-10.47 210.14-9.2 210.48-7.93 211.03-6.77 211.58-5.62 212.4-4.72 213.22-3.83 214.32-3.3 215.41-2.76 216.83-2.76L216.83-2.76Q218.3-2.76 219.42-3.28 220.54-3.81 221.36-4.69 222.18-5.57 222.71-6.71 223.25-7.86 223.58-9.13 223.91-10.4 224.05-11.69 224.18-12.99 224.18-14.16ZM254.72-17.14L250.06 0 242.63 0 234.92-28.2 243.17-28.2 248-8.42 252.03-28.2 259.46-28.2 264.39-7.89 269.15-28.2 274.86-28.2 266.32 0 258.89 0 254.72-17.14Z" opacity="1" transform="matrix(1,0,0,1,0,0)" fill="#000000" class="wordmark-text-0" data-fill-palette-color="primary" id="text-0"></path></svg></g></svg></g></svg></g></svg></g><g><svg viewBox="0 0 200.39359822762015 92.76558040493117" height="92.76558040493117" width="200.39359822762015"><g><svg xmlns="http://www.w3.org/2000/svg" xmlns:xlink="http://www.w3.org/1999/xlink" version="1.1" x="0" y="0" viewBox="6.4030000000000005 30.101 85.60499999999999 39.628" enable-background="new 0 0 100 100" xml:space="preserve" height="92.76558040493117" width="200.39359822762015" class="icon-icon-0" data-fill-palette-color="accent" id="icon-0"><path fill="#0056ff" d="M50.664 43.778c-0.213-0.254-0.541-0.425-0.98-0.425-1.709 0-1.709 2.555-0.006 2.555 0.441 0 0.77-0.172 0.982-0.426h3.076c1.135 0 1.135-1.704 0-1.704H50.664zM60.178 34.012c-0.646-0.854-0.906-0.92-1.617-0.92l-6.52 0.002c-0.707 0-1.277 0.572-1.277 1.277v5.801c0 0.705 0.57 1.277 1.277 1.277H64.18c0.705 0 0.873-0.572 0.373-1.277L60.178 34.012zM7.354 33.183h8.104c0.51-1.779 2.148-3.082 4.094-3.082l39.312 0.013c1.762 0 2.865 0.598 4.016 2.127l9.312 13.628h12.875c1.881 0 3.406 1.524 3.406 3.406v5.038 0.109V55.9l2.258 0.006c0.705 0 1.277 0.572 1.277 1.277v3.369c0 0.703-0.572 1.275-1.277 1.275l-5.158-0.006c-0.24-5.303-4.613-9.522-9.975-9.522-5.354 0-9.721 4.209-9.973 9.498l-23.004-0.043V61.49c0-1.176-0.953-2.129-2.129-2.129H24.74c-1.176 0-2.129 0.953-2.129 2.129v0.242l-9.582-0.014c-0.705 0-1.275-0.57-1.275-1.275v-3.369c0-0.705 0.57-1.276 1.275-1.276l2.258-0.006 0.002-11.771h6.648c1.01 0 1.482-0.804 1.42-1.557H10.203c-1.268 0-1.268-1.901 0-1.901h5.086l0.002-3.997h10.242c0.975 0 1.449-0.75 1.424-1.481H7.354C6.086 35.085 6.086 33.183 7.354 33.183zM52.102 40.853c-0.227 0-0.424-0.117-0.537-0.293 0.143-0.144 0.242-0.206 0.242-0.206s0.236 0 0.262-0.526c0.023-0.474 0.105-0.292 0.314-0.377 0.186-0.072 0.139-0.318-0.014-0.831-0.236-0.792-0.188-1.271-0.197-1.471-0.016-0.3-0.52-1.712 0.045-2.335 0.9-0.996 3.021-1.234 3.988-0.854 0.486 0.192 0.816 0.931 0.965 1.428 0.301 0.997 1.316 0.479 1.379 0.87 0.043 0.271-0.73 0.28-1.143 0.412-0.271 0.087-0.23 0.308-0.137 0.504 0.059 0.127 0.424 0.546 0.613 0.858 0.254 0.418-0.34 0.379-0.309 0.483 0.131 0.427-0.129 0.46-0.072 0.69 0.07 0.302 0.455 0.646-0.25 0.867-0.934 0.289-1.939 0.063-1.736 0.78L52.102 40.853 52.102 40.853zM25.178 62.291c0-0.443 0.037-0.88 0.111-1.303h3.928c-0.154 0.406-0.238 0.845-0.238 1.303 0 2.008 1.627 3.637 3.637 3.637s3.639-1.629 3.639-3.637c0-0.458-0.084-0.896-0.238-1.303h3.926c0.074 0.423 0.113 0.859 0.113 1.303 0 4.107-3.33 7.438-7.439 7.438C28.508 69.729 25.178 66.398 25.178 62.291zM68.158 62.291c0-4.107 3.33-7.438 7.438-7.438s7.438 3.33 7.438 7.438-3.33 7.438-7.438 7.438S68.158 66.398 68.158 62.291zM71.959 62.291c0 2.008 1.629 3.637 3.639 3.637 2.008 0 3.637-1.629 3.637-3.637 0-2.01-1.629-3.639-3.637-3.639C73.588 58.652 71.959 60.281 71.959 62.291z" data-fill-palette-color="accent"></path></svg></g></svg></g></svg></g><defs></defs></svg><rect width="395.52" height="59.97554983270156" fill="none" stroke="none" visibility="hidden"></rect></g></svg></g></svg>